ply
format ascii 1.0
element vertex 437
property double x
property double y
property double z
element face 1405
property list uchar int vertex_indices
end_header
-0.953587 -0.464405 -1 
-0.375271 -0.649362 -1 
0 0 1 
-0.790532 0.00782764 1 
-0.124991 -0.216512 1 
1.52459 -2.58372 1 
1.52033 -2.58623 0.75 
-1.03483 -0.701166 0.75 
-0.500077 -0.865981 0.75 
0.500394 0.865798 0 
-0.383204 1.18981 -0.25 
-0.382933 1.1899 0 
0.500051 0.865996 1 
-0.383684 1.18966 0.75 
2.38468 -2.07686 0 
2.06466 -1.34153 0.25 
2.38147 -2.08053 -1 
2.06328 -1.34364 -0.75 
2.38406 -2.07756 -0.75 
-2.99726 0.280923 -1 
-3.01042 -0.968167 0 
-3.01063 -0.967528 1 
-3.00657 -0.723222 0.75 
-0.500532 -0.865718 0 
-1.0352 -0.700615 -0.25 
-0.500336 -0.865831 -0.25 
0.384913 -2.43194 -0.25 
0.385835 -2.43179 0.75 
0.659713 -3.0927 0.75 
2.38524 -2.07621 -0.25 
2.39611 -2.06366 1 
2.39195 -2.06847 0.75 
0.402124 -0.680658 1 
0.566195 -0.491857 1 
1.05807 0.0740944 1 
1.22203 0.262934 1 
-0.465151 0.953223 1 
0.374997 0.649521 1 
0.500218 0.865899 -1 
-0.464807 0.953391 -1 
-0.383393 1.18975 -1 
1.85406 -1.479 -1 
1.01579 -2.02316 -1 
1.22689 -1.88607 -1 
-1.03511 -0.700745 -1 
-0.709193 0.244019 1 
-1.03479 -0.701222 1 
-3 0.000889129 0.25 
-2.99968 0.253781 0.25 
0.500359 0.865818 -0.25 
0.500073 0.865983 0.75 
2.06508 -1.34088 0 
2.06342 -1.34343 -1 
-2.99995 0.0168899 -0.75 
-1.03519 -0.700625 0 
0.384901 -2.43194 0 
2.16442 -2.20857 0 
-0.383745 1.18964 1 
0.375165 0.649424 -1 
2.16646 -2.20657 -1 
1.31344 -2.70876 -1 
0.570679 -1.47456 -1 
0.378083 -1.63388 -1 
0.0745547 -1.05804 -1 
0.805853 -2.15942 -1 
0.592807 -2.29643 -1 
1.34127 -0.837253 -1 
1.14821 -0.997053 -1 
0.73021 -0.302975 -1 
1.64539 -1.61406 -1 
1.95525 -2.32959 -1 
1.43526 -1.75072 -1 
-1.39598 0.742446 -1 
-1.43757 0.495884 -1 
-2.23319 0.371294 -1 
-0.546042 0.717174 -1 
0.250154 0.432924 -1 
0.125099 0.216449 -1 
-0.627456 0.480936 -1 
-1.39624 0.741964 1 
-2.22119 0.615471 1 
-2.23411 0.365728 1 
-1.35535 0.987689 1 
-2.19524 1.11508 1 
-2.20769 0.866661 1 
1.34163 -0.836669 1 
1.14946 -0.99561 1 
1.43726 -1.74908 1 
0.894095 -0.114429 1 
0.249993 0.433017 1 
0.124996 0.216509 1 
0.730137 -0.30315 1 
0.571491 -1.47424 1 
0.378231 -1.63384 1 
0.595925 -2.29562 1 
0.238199 -0.869344 1 
-0.249962 -0.433034 1 
-0.375011 -0.649513 1 
0.0740312 -1.05807 1 
1.95931 -2.32618 0.5 
1.95789 -2.32738 1 
1.73497 -2.46016 0.75 
1.73716 -2.45861 -0.75 
1.73548 -2.4598 -0.25 
0.883077 -2.96356 -0.75 
1.0969 -2.83669 -0.25 
0.18629 -1.79312 0.5 
-0.089821 -1.24677 0.5 
-0.090201 -1.24674 0.25 
0.185572 -1.7932 0.75 
-0.0898907 -1.24676 1 
-0.0898998 -1.24676 0.75 
0.18706 -1.79304 -0.5 
-0.0899642 -1.24676 -0.5 
-0.0898772 -1.24676 -0.75 
0.187251 -1.79302 -0.25 
0.18916 -1.79282 0 
-0.0902198 -1.24674 0 
-0.0900118 -1.24675 -0.25 
-1.64584 -0.735678 -0.5 
-2.30156 -0.87483 -0.5 
-2.30095 -0.87644 -0.75 
-1.64565 -0.736103 -0.25 
-1.64572 -0.735935 0 
-2.29995 -0.879065 0 
-2.30027 -0.878215 -0.25 
-3.00203 -0.22437 0.5 
-3.00438 -0.472982 0.75 
-3.00469 -0.471004 1 
-3.00164 -0.229429 0.75 
-3.00289 -0.482344 -0.5 
-3.00148 -0.231617 -0.5 
-3.00203 -0.224252 -0.75 
-3.00502 -0.468913 -0.25 
-2.99489 0.529732 -0.5 
-2.99461 0.531329 -0.25 
-2.99997 0.0136283 -0.5 
-3 0 -0.25 
1.7267 -0.518165 -0.5 
1.22194 0.263367 -0.5 
1.22185 0.263791 -0.25 
1.72663 -0.518425 -0.75 
1.22198 0.263191 -0.75 
1.72651 -0.518798 0.5 
1.22192 0.263482 0.5 
1.22203 0.262931 0.75 
1.72619 -0.519865 0.25 
1.72622 -0.519772 0 
1.22176 0.264195 0 
1.22183 0.263861 0.25 
-1.31276 1.23558 0.5 
-1.31337 1.23493 0.25 
-2.194 1.11752 0.25 
-0.383143 1.18983 0.5 
0.500128 0.865952 0.5 
0.500239 0.865887 0.25 
-0.383076 1.18985 0.25 
-1.31303 1.2353 -0.5 
-1.31327 1.23504 -0.75 
-2.19224 1.12096 -0.75 
-0.383237 1.1898 -0.5 
0.500314 0.865844 -0.5 
0.500242 0.865886 -0.75 
-0.383436 1.18974 -0.75 
-2.99535 0.527165 0.75 
-2.99794 0.273561 0.5 
-2.99998 0.0103393 0.5 
-2.99807 0.272122 0.75 
-1.64582 -0.735708 0.5 
-2.29942 -0.880438 0.5 
-2.30026 -0.878233 0.25 
-1.64535 -0.736773 0.75 
-1.64539 -0.736677 1 
-2.29929 -0.880786 0.75 
1.087 -2.8405 0.75 
0.876559 -2.96549 0.5 
1.09282 -2.83826 1 
0.878157 -2.96502 1 
0.874167 -2.9662 0.75 
-1.56245 -0.24242 1 
-2.27273 -0.38368 1 
-2.28631 -0.630705 1 
-1.52068 0.00448534 1 
-1.47887 0.250878 1 
-2.24694 0.117399 1 
-2.25991 -0.133458 1 
-1.56242 -0.242555 -1 
-2.27414 -0.375197 -1 
-2.26024 -0.127808 -1 
-1.60392 -0.489827 -1 
-1.64554 -0.736346 -1 
-2.28752 -0.626308 -1 
0.955522 -1.15628 -1 
0.40234 -0.680531 -1 
0.566314 -0.49172 -1 
0.763138 -1.31534 -1 
0.238405 -0.869289 -1 
1.72647 -0.518926 -1 
1.05804 0.074574 -1 
1.22196 0.263277 -1 
1.53372 -0.678382 -1 
0.894166 -0.113877 -1 
-1.31318 1.23514 -1 
-2.20605 0.870831 -1 
-2.19234 1.12078 -1 
-1.35473 0.988533 -1 
-2.21974 0.620693 -1 
-0.627773 0.480522 1 
-0.546287 0.716987 1 
-1.43761 0.495754 1 
1.72657 -0.518604 1 
1.85529 -1.47747 1 
1.53411 -0.677508 1 
1.64694 -1.61247 1 
0.95723 -1.15486 1 
1.01575 -2.02318 1 
1.22594 -1.88668 1 
0.764149 -1.31475 1 
0.80755 -2.15879 1 
2.38735 -2.07378 0.25 
2.38981 -2.07095 0.5 
1.73732 -2.4585 0.25 
1.95217 -2.33217 -0.75 
1.51508 -2.58931 -0.5 
1.30922 -2.7108 -0.75 
1.52121 -2.58571 -0.75 
1.30302 -2.71379 -0.5 
1.10127 -2.835 -0.5 
1.09666 -2.83678 -0.75 
0.386942 -2.43162 0.25 
0.660549 -3.09252 0.25 
0.387617 -2.43151 0.5 
0.18703 -1.79305 0.25 
0.666087 -3.09133 -0.5 
0.381465 -2.43249 -0.75 
0.383454 -2.43217 -0.5 
0.186938 -1.79306 -0.75 
-0.500324 -0.865838 -0.5 
-1.0351 -0.700769 -0.75 
-0.500348 -0.865824 -0.75 
-1.03527 -0.700519 -0.5 
-1.64546 -0.736526 -0.75 
-3.00589 -0.72603 0.25 
-3.00649 -0.723551 0.5 
-3.01067 -0.967406 -0.5 
-3.00643 -0.723811 -0.5 
-3.00424 -0.473889 -0.75 
-2.99343 0.775804 -0.75 
-2.99337 0.776042 -0.5 
2.38556 -2.07584 -0.5 
2.06399 -1.34256 -0.25 
2.06422 -1.34221 -0.5 
1.72654 -0.518695 -0.25 
2.06624 -1.33909 0.75 
2.06525 -1.34062 0.5 
1.72663 -0.518424 0.75 
-1.31403 1.23423 1 
-2.19499 1.11557 0.75 
-1.31389 1.23438 0.75 
-2.19494 1.11568 0.5 
-1.31344 1.23486 0 
-2.19269 1.12008 -0.25 
-2.19297 1.11955 0 
-1.31314 1.23518 -0.25 
-2.19273 1.12001 -0.5 
-2.99652 0.52043 0 
-2.99149 0.783253 0 
-2.99536 0.527101 0.25 
-2.99373 0.774661 0.25 
-2.99425 0.533332 0.5 
-0.500113 -0.86596 0.5 
-1.03509 -0.700781 0.25 
-0.500289 -0.865858 0.25 
-1.03507 -0.700811 0.5 
-1.64548 -0.736467 0.25 
1.52013 -2.58635 0.5 
1.30465 -2.713 0.5 
1.09511 -2.83738 0.25 
-0.953339 -0.464915 1 
-0.871989 -0.228333 1 
-1.60386 -0.49005 1 
-0.250183 -0.432907 -1 
-0.790523 0.00852035 -1 
-0.12511 -0.216443 -1 
-0.872132 -0.227786 -1 
-1.52069 0.0032173 -1 
-2.24672 0.121378 -1 
-1.47911 0.249447 -1 
-2.9999 0.0243342 -1 
-0.708887 0.244907 -1 
0 0 -1 
-2.29926 -0.880867 1 
-0.500039 -0.866003 1 
0.881171 -2.96412 0 
1.0924 -2.83842 0 
1.29906 -2.71569 0.25 
1.30246 -2.71406 0 
-2.98906 1.03225 0.5 
-2.99271 0.778596 0.5 
-2.99232 0.78006 0.75 
-2.99106 1.02643 0 
-2.99024 1.02881 0.25 
-2.98983 1.02999 -1 
-2.99081 1.02716 -0.25 
-2.98796 1.03541 0.75 
2.06508 -1.34088 1 
-2.99014 1.02912 -0.5 
-2.99105 0.784938 -0.25 
-2.9951 0.528564 -0.75 
-2.99271 0.778588 -1 
-2.98952 1.03092 -0.75 
-3.00237 -0.219733 -1 
-3.00525 -0.467416 -1 
-3.00712 -0.720935 -0.75 
-3.0077 -0.718518 -1 
-3.00517 -0.467898 0 
-3.00136 -0.233094 0.25 
-3.00176 -0.227961 0 
-3.00413 -0.474589 0.25 
-3.00519 -0.467821 0.5 
-3.00662 -0.723029 0 
-2.30109 -0.876066 -1 
-0.500404 -0.865792 -1 
-0.0898757 -1.24676 -1 
0.888052 -2.96207 -1 
1.1009 -2.83514 -1 
0.67808 -3.08872 -1 
1.52617 -2.58279 -1 
1.741 -2.45589 -1 
2.16498 -2.20802 -0.75 
1.94957 -2.33435 0 
1.5068 -2.59414 0 
1.95788 -2.32739 0.25 
2.16866 -2.20441 0.25 
1.30907 -2.71087 1 
2.17656 -2.19661 1 
-2.99453 0.531748 -1 
-3.01075 -0.967146 -1 
0.663127 -3.09197 0.5 
0.6593 -3.09278 1 
0.883635 -2.96339 0.25 
0.659905 -3.09266 0 
-3.01027 -0.968655 0.5 
-3.00991 -0.969774 0.25 
-2.99765 0.276738 1 
-2.99095 0.785324 1 
-2.98589 1.04137 1 
-2.99894 0.262411 -0.25 
-3 0 0 
-2.99991 0.251107 0 
-3.00187 -0.226478 -0.25 
-3.00202 -0.224429 1 
-2.99992 0.0219673 1 
-2.99995 0.0166283 0.75 
-3.01074 -0.967191 -0.25 
-3.0111 -0.966061 -0.75 
0.887385 -2.96227 -0.25 
0.662107 -3.09219 -0.25 
0.889925 -2.96151 -0.5 
0.671352 -3.09019 -0.75 
1.51484 -2.58945 -0.25 
1.72735 -2.46552 0 
1.741 -2.4559 -0.5 
1.74011 -2.45652 1 
1.73754 -2.45834 0.5 
1.51091 -2.59175 0.25 
0.185529 -1.7932 1 
0.386139 -2.43175 1 
-2.9946 0.531412 1 
0.381489 -2.43248 -1 
0.185642 -1.79319 -1 
1.95336 -2.33118 0.75 
1.95627 -2.32873 -0.25 
1.95804 -2.32725 -0.5 
1.3066 -2.71207 -0.25 
-3.00767 -0.718617 1 
-3.00686 -0.722013 -0.25 
-2.99771 0.276104 -0.5 
1.08358 -2.8418 0.5 
2.17126 -2.20185 0.5 
2.17264 -2.20049 0.75 
2.16701 -2.20603 -0.5 
2.16634 -2.20669 -0.25 
-3.01045 -0.968102 0.75 
-2.99767 0.27651 -0.75 
1.30474 -2.71296 0.75 
0.484 -0.586403 -0.125 
1.5887 -1.80479 -0.375 
0.797178 -1.73803 0.375 
1.58973 -1.80389 0.262498 
-2.11194 0.266401 0.125 
1.15835 -2.0467 0.478439 
-1.18244 -0.089909 0.375 
1.55635 -1.18736 -0.124999 
-2.40237 -0.293935 -0.125 
-0.18636 0.496508 0.375 
1.09035 -0.677413 0.125 
-0.496686 -0.185888 -0.375 
-1.18242 -0.0901885 -0.375 
-0.18605 0.496624 -0.375 
1.18952 -2.15976 -0.125 
-0.999808 0.637679 0.375 
-2.44249 -0.284825 0.457925 
-2.43669 0.586808 0.374999 
-1.00098 0.635832 -0.375 
0.693327 -0.894732 0.520064 
0.377721 -1.19978 0.125 
1.19439 -1.42392 -0.533547 
-1.92292 -0.358717 -0.375 
0.32477 -1.05354 -0.374999 
-2.49235 0.660951 -0.125 
0.523181 0.08679 0.375 
-1.7305 0.618699 -0.375 
0.833215 -2.43218 0.125 
-2.24763 0.498296 -0.514355 
1.05176 -0.547768 -0.500849 
-2.13334 0.018005 -0.510088 
1.43354 -1.01885 0.375 
-1.90392 -0.176986 0.588679 
-0.514542 -0.180432 0.375 
0.48499 0.118674 -0.389706 
-1.58341 0.119252 -0.487719 
0.0267566 -0.163339 -0.472404 
-1.50415 0.713499 0.125 
0.818022 -2.46326 -0.374999 
0.725278 -1.96367 -0.125 
-0.208586 -0.461213 -0.125 
1.00387 -0.469724 0.598259 
-1.94082 0.547501 0.565158 
-0.199704 -0.489406 0.375 
0.902111 -0.142134 -0.125 
-1.8007 -0.341262 0.125 
0.371982 -0.455417 0.492748 
-1.50442 0.369585 0.51104 
0.0978038 -0.756413 0.125 
0.681099 -1.42413 -0.420419 
0.18933 -0.621899 -0.568034 
4 191 190 241 321 
4 85 212 417 427 
4 97 111 98 110 
4 387 389 393 400 
4 372 330 56 387 
4 43 42 223 400 
4 305 335 380 30 
4 58 75 76 399 
4 293 357 341 424 
4 137 349 348 410 
4 123 392 398 431 
4 245 246 130 120 
4 395 401 404 419 
4 33 214 405 427 
4 189 0 186 398 
4 53 286 414 416 
4 298 259 257 403 
4 252 393 396 415 
4 244 313 245 120 
4 147 146 396 417 
4 118 117 116 406 
4 203 202 158 205 
4 395 2 419 429 
4 426 386 434 436 
4 257 256 82 258 
4 299 83 84 257 
4 320 133 394 376 
4 240 119 24 398 
4 51 147 250 393 
4 48 47 390 403 
4 63 196 1 436 
4 28 231 27 178 
4 154 156 155 395 
4 207 208 395 401 
4 402 390 418 431 
4 396 393 407 415 
4 57 82 258 36 
4 350 133 131 394 
4 158 160 157 404 
4 152 259 403 428 
4 11 155 156 395 
4 121 313 355 120 
4 331 365 389 400 
4 91 411 427 432 
4 410 152 390 262 
4 168 280 171 392 
4 14 56 51 382 
4 188 187 132 311 
4 375 22 180 181 
4 23 108 117 434 
4 339 27 94 28 
4 175 231 178 174 
4 120 122 119 408 
4 286 288 188 53 
4 184 183 418 428 
4 45 3 392 419 
4 387 361 389 400 
4 291 22 21 181 
4 252 138 393 415 
4 50 89 154 411 
4 301 266 410 268 
4 78 76 75 399 
4 178 218 176 174 
4 125 244 245 120 
4 189 44 238 190 
4 42 64 425 435 
4 157 160 10 404 
4 105 296 400 294 
4 106 93 109 388 
4 147 149 148 396 
4 166 126 47 402 
4 216 214 86 417 
4 375 181 21 22 
4 130 120 246 187 
4 192 71 67 407 
4 266 135 410 265 
4 161 142 139 420 
4 194 283 193 436 
4 137 350 136 394 
4 256 84 257 82 
4 7 171 278 392 
4 264 306 247 248 
4 264 310 247 306 
4 91 90 411 432 
4 181 179 280 418 
4 401 398 419 392 
4 386 396 430 432 
4 218 27 94 388 
4 64 42 61 435 
4 84 368 164 80 
4 263 157 10 404 
4 206 205 203 412 
4 408 398 421 431 
4 268 298 267 403 
4 353 352 184 81 
4 80 167 164 403 
4 279 280 179 392 
4 20 170 320 343 
4 143 145 144 427 
4 78 287 289 404 
4 399 77 420 422 
4 78 289 399 404 
4 373 102 362 387 
4 182 45 3 392 
4 208 209 79 401 
4 84 368 345 164 
4 361 330 387 389 
4 156 11 395 401 
4 137 347 410 414 
4 96 278 279 419 
4 291 22 383 21 
4 238 189 241 398 
4 203 202 204 158 
4 95 92 93 405 
4 34 88 144 427 
4 169 170 402 418 
4 96 4 95 432 
4 268 152 410 301 
4 114 239 113 436 
4 101 6 87 391 
4 66 393 415 407 
4 115 116 425 435 
4 6 385 216 391 
4 125 244 354 245 
4 287 73 416 421 
4 385 174 215 391 
4 147 252 396 430 
4 123 274 392 431 
4 51 250 387 393 
4 146 149 396 427 
4 34 145 212 427 
4 263 264 157 412 
4 173 171 169 418 
4 187 186 188 408 
4 171 46 7 278 
4 279 4 96 419 
4 33 91 427 432 
4 90 45 207 395 
4 126 166 129 402 
4 332 379 333 389 
4 260 156 151 401 
4 296 365 331 400 
4 194 386 415 420 
4 406 388 425 435 
4 314 355 121 313 
4 288 74 384 53 
4 268 152 403 410 
4 1 322 114 239 
4 386 396 415 430 
4 144 50 154 411 
4 84 164 299 403 
4 191 241 189 408 
4 136 137 394 416 
4 192 194 409 415 
4 93 92 94 388 
4 199 142 162 198 
4 10 160 399 404 
4 158 72 205 404 
4 80 82 79 428 
4 71 328 222 102 
4 82 80 84 428 
4 334 385 215 216 
4 68 194 67 415 
4 231 229 232 388 
4 382 373 387 381 
4 209 79 401 433 
4 377 53 384 414 
4 335 305 380 211 
4 66 67 407 415 
4 32 33 405 432 
4 155 11 9 395 
4 386 194 409 436 
4 255 145 143 427 
4 52 141 200 17 
4 182 392 418 433 
4 263 11 260 404 
4 262 303 261 410 
4 410 261 412 414 
4 285 284 282 398 
4 141 52 200 197 
4 86 214 405 417 
4 389 253 417 213 
4 59 17 329 18 
4 236 62 114 409 
4 73 287 404 421 
4 230 341 55 413 
4 283 290 422 436 
4 357 235 26 424 
4 211 210 305 253 
4 150 151 401 423 
4 251 250 381 249 
4 264 247 159 414 
4 56 15 14 51 
4 192 195 407 435 
4 5 385 216 6 
4 396 388 405 406 
4 392 168 418 431 
4 243 169 242 402 
4 390 47 402 403 
4 65 228 64 424 
4 71 192 43 407 
4 290 194 68 420 
4 190 238 189 241 
4 115 26 112 425 
4 242 315 318 394 
4 42 327 43 225 
4 26 413 424 425 
4 43 327 102 225 
4 51 14 382 29 
4 355 314 121 337 
4 11 10 399 404 
4 92 218 94 388 
4 23 24 54 397 
4 201 200 198 415 
4 71 70 222 328 
4 131 130 188 416 
4 224 64 228 424 
4 255 143 417 427 
4 209 184 81 428 
4 54 123 392 398 
4 329 69 222 387 
4 131 136 394 416 
4 240 24 397 398 
4 396 405 427 432 
4 194 193 409 436 
4 316 348 47 394 
4 341 230 340 413 
4 89 90 395 411 
4 332 361 389 330 
4 104 359 358 424 
4 134 384 414 377 
4 73 75 72 404 
4 272 271 270 419 
4 262 152 390 423 
4 125 122 120 408 
4 48 165 47 403 
4 254 333 379 389 
4 235 112 425 435 
4 137 390 394 414 
4 9 395 399 420 
4 73 404 412 421 
4 118 25 426 436 
4 7 278 279 392 
4 228 325 65 64 
4 214 216 388 417 
4 184 185 402 418 
4 386 409 434 436 
4 386 411 422 426 
4 218 177 178 176 
4 187 130 394 416 
4 109 93 27 388 
4 396 405 417 427 
4 260 263 404 423 
4 261 262 410 412 
4 130 245 120 394 
4 143 396 417 427 
4 367 93 109 366 
4 124 125 394 408 
4 280 173 181 418 
4 56 15 51 389 
4 144 146 143 427 
4 191 120 408 187 
4 388 393 396 417 
4 239 1 237 436 
4 195 43 192 407 
4 218 177 94 178 
4 25 118 426 434 
4 168 280 179 418 
4 229 388 413 425 
4 343 170 320 242 
4 314 191 313 121 
4 314 321 191 121 
4 187 246 311 312 
4 278 7 279 419 
4 245 246 120 313 
4 93 367 109 27 
4 295 391 400 413 
4 146 144 149 427 
4 191 313 121 120 
4 152 151 150 428 
4 37 88 89 411 
4 75 58 39 399 
4 54 123 271 392 
4 342 169 343 242 
4 87 216 86 417 
4 376 320 20 124 
4 218 215 174 391 
4 244 313 120 355 
4 185 180 402 418 
4 334 385 174 215 
4 37 36 13 395 
4 369 104 234 359 
4 66 68 67 415 
4 106 92 388 405 
4 372 103 330 387 
4 412 390 414 416 
4 280 168 171 418 
4 238 284 398 240 
4 130 131 188 132 
4 264 159 157 412 
4 282 289 287 398 
4 418 390 428 433 
4 189 44 0 238 
4 36 153 395 208 
4 189 119 398 186 
4 415 201 420 430 
4 191 321 241 121 
4 190 191 241 189 
4 260 262 412 423 
4 111 107 270 429 
4 289 290 77 399 
4 169 170 343 242 
4 369 104 65 234 
4 397 395 419 426 
4 276 378 391 413 
4 397 290 399 422 
4 170 394 402 431 
4 270 272 429 434 
4 290 289 397 399 
4 90 207 89 395 
4 47 316 394 402 
4 145 34 144 427 
4 162 39 58 399 
4 58 161 162 399 
4 163 161 160 399 
4 107 270 429 434 
4 103 361 387 400 
4 288 132 311 188 
4 2 3 45 419 
4 77 290 420 422 
4 116 232 388 406 
4 155 148 149 411 
4 253 211 255 417 
4 187 130 188 132 
4 246 130 187 132 
4 392 54 398 419 
4 108 23 272 434 
4 312 191 313 314 
4 191 312 313 187 
4 187 312 313 246 
4 191 313 120 187 
4 120 313 246 187 
4 4 279 3 419 
4 253 220 379 254 
4 263 260 412 423 
4 120 191 408 121 
4 62 63 114 409 
4 163 202 205 158 
4 257 84 403 428 
4 388 216 391 417 
4 45 90 2 395 
4 246 187 311 132 
4 374 227 105 424 
4 89 50 395 37 
4 371 253 380 389 
4 349 347 265 410 
4 303 307 248 410 
4 216 215 388 391 
4 4 32 95 432 
4 185 128 129 180 
4 206 203 247 414 
4 287 285 398 421 
4 19 206 336 308 
4 294 293 413 424 
4 32 2 33 432 
4 111 270 8 429 
4 108 272 107 434 
4 378 218 174 391 
4 347 377 410 414 
4 26 55 413 425 
4 19 308 384 74 
4 411 395 420 422 
4 318 243 242 402 
4 74 288 384 19 
4 74 53 288 286 
4 384 134 414 308 
4 153 156 395 401 
4 360 223 226 400 
4 395 419 426 429 
4 241 119 189 408 
4 51 146 147 393 
4 255 254 253 417 
4 57 36 258 13 
4 376 130 133 394 
4 217 214 388 405 
4 96 98 97 429 
4 120 394 408 416 
4 71 222 69 387 
4 304 298 297 257 
4 205 40 202 163 
4 104 234 359 424 
4 388 396 407 435 
4 55 26 115 425 
4 271 123 274 392 
4 87 213 389 417 
4 61 42 195 435 
4 203 336 206 247 
4 269 299 164 403 
4 92 217 388 405 
4 262 390 410 412 
4 294 293 277 413 
4 365 275 389 391 
4 319 126 127 402 
4 39 38 162 58 
4 393 387 400 407 
4 378 174 385 391 
4 394 390 402 431 
4 237 281 426 436 
4 98 96 95 429 
4 364 371 99 389 
4 2 45 395 419 
4 15 143 146 417 
4 275 6 101 391 
4 236 112 235 435 
4 158 204 203 159 
4 169 171 168 418 
4 90 33 2 432 
4 131 188 53 416 
4 336 308 206 247 
4 3 2 4 419 
4 310 264 247 159 
4 201 142 139 415 
4 182 183 392 433 
4 180 179 181 418 
4 159 309 310 302 
4 90 2 411 432 
4 150 153 13 401 
4 183 185 184 418 
4 123 408 398 122 
4 11 395 401 404 
4 309 204 302 159 
4 309 159 310 247 
4 203 309 247 159 
4 36 12 13 57 
4 316 47 126 402 
4 183 418 428 433 
4 226 374 400 424 
4 273 7 279 392 
4 276 277 378 413 
4 142 201 198 415 
4 273 8 270 419 
4 346 299 304 83 
4 200 142 198 415 
4 196 281 1 436 
4 391 400 413 425 
4 54 271 272 419 
4 396 252 415 430 
4 374 331 360 400 
4 87 86 85 417 
4 47 165 166 403 
4 87 85 213 417 
4 386 406 409 435 
4 205 163 158 404 
4 259 257 403 428 
4 151 152 423 428 
4 9 10 49 399 
4 69 387 393 407 
4 393 388 396 407 
4 214 91 86 427 
4 49 160 161 399 
4 276 275 295 391 
4 141 200 66 415 
4 395 9 411 420 
4 154 89 395 411 
4 386 415 420 430 
4 34 145 144 411 
4 218 231 388 391 
4 215 218 388 391 
4 247 203 159 414 
4 349 265 403 410 
4 300 307 303 410 
4 71 43 387 407 
4 32 4 2 432 
4 275 101 364 391 
4 212 255 417 427 
4 254 255 143 417 
4 299 346 345 83 
4 247 264 248 414 
4 95 32 92 405 
4 150 82 79 401 
4 345 299 83 84 
4 276 295 277 413 
4 268 265 266 410 
4 408 123 398 431 
4 117 232 116 406 
4 7 8 273 419 
4 122 123 54 398 
4 211 100 213 371 
4 274 168 392 431 
4 272 270 107 434 
4 79 209 81 428 
4 154 149 144 411 
4 164 345 84 299 
4 406 95 432 107 
4 108 107 106 406 
4 390 137 410 414 
4 285 286 188 416 
4 0 284 238 397 
4 353 167 81 403 
4 34 37 12 50 
4 200 41 393 407 
4 242 170 394 402 
4 200 141 66 393 
4 251 329 381 387 
4 351 353 184 129 
4 388 393 400 407 
4 48 267 269 403 
4 170 169 168 431 
4 17 200 41 393 
4 398 392 401 423 
4 196 195 193 409 
4 178 338 231 175 
4 173 243 22 402 
4 226 374 360 400 
4 135 377 134 410 
4 238 237 239 397 
4 1 284 0 397 
4 36 153 208 401 
4 193 196 409 436 
4 153 36 13 401 
4 275 276 6 391 
4 126 319 316 402 
4 97 7 278 419 
4 240 241 119 398 
4 180 182 179 418 
4 43 42 400 407 
4 285 186 398 421 
4 299 304 83 257 
4 229 232 388 425 
4 240 25 237 397 
4 294 424 400 105 
4 289 397 399 404 
4 361 332 389 221 
4 153 36 395 13 
4 259 152 150 428 
4 289 287 398 404 
4 97 278 96 419 
4 9 155 395 411 
4 275 365 295 391 
4 385 276 378 391 
4 49 9 399 420 
4 90 2 395 411 
4 150 151 423 428 
4 281 422 426 436 
4 340 277 293 413 
4 75 163 404 160 
4 405 33 427 432 
4 3 279 392 419 
4 161 58 420 76 
4 238 284 240 397 
4 353 351 184 352 
4 23 117 25 434 
4 215 176 218 174 
4 387 43 400 407 
4 287 78 73 404 
4 187 189 186 408 
4 237 281 397 426 
4 107 432 429 95 
4 296 331 374 400 
4 385 215 216 391 
4 115 116 55 425 
4 55 116 229 425 
4 271 54 392 419 
4 378 175 231 413 
4 87 6 216 391 
4 129 166 353 402 
4 82 57 258 256 
4 259 297 298 257 
4 129 185 180 402 
4 344 80 81 167 
4 283 290 397 422 
4 261 263 260 412 
4 45 392 401 419 
4 256 84 83 257 
4 73 412 416 421 
4 129 180 127 402 
4 152 390 423 428 
4 11 263 10 404 
4 113 118 409 436 
4 77 76 399 420 
4 108 232 117 406 
4 137 317 350 394 
4 386 411 420 422 
4 4 96 419 429 
4 398 404 421 423 
4 50 153 154 395 
4 150 82 428 79 
4 270 272 419 429 
4 419 272 426 429 
4 127 180 22 402 
4 184 185 129 402 
4 397 395 404 419 
4 298 299 269 403 
4 385 5 216 334 
4 75 78 399 404 
4 101 87 389 391 
4 390 408 416 421 
4 398 397 404 419 
4 170 320 242 394 
4 353 184 129 402 
4 402 184 418 428 
4 36 258 13 401 
4 184 353 166 402 
4 401 150 423 433 
4 95 111 98 429 
4 297 298 268 403 
4 95 107 111 429 
4 421 392 423 433 
4 75 73 78 404 
4 347 137 136 414 
4 56 330 333 389 
4 76 198 58 420 
4 167 368 344 80 
4 412 390 416 421 
4 72 39 205 404 
4 201 68 415 420 
4 46 97 292 7 
4 69 251 17 393 
4 106 93 388 92 
4 63 61 196 409 
4 26 235 112 425 
4 98 95 405 406 
4 45 182 183 392 
4 146 147 393 417 
4 214 388 405 417 
4 196 63 409 436 
4 186 285 408 421 
4 308 384 74 414 
4 116 115 406 435 
4 160 75 399 404 
4 421 390 431 433 
4 344 353 167 81 
4 231 218 178 174 
4 195 42 407 435 
4 36 12 37 13 
4 185 183 182 418 
4 301 297 268 403 
4 164 165 269 403 
4 128 129 180 127 
4 88 86 91 427 
4 84 257 82 428 
4 27 93 367 94 
4 280 279 278 392 
4 74 384 53 414 
4 146 51 15 393 
4 267 298 269 403 
4 351 184 185 129 
4 347 349 137 410 
4 269 165 48 403 
4 168 273 274 392 
4 165 167 166 403 
4 37 89 50 411 
4 360 103 387 400 
4 56 51 382 387 
4 86 85 417 427 
4 130 187 188 416 
4 195 196 61 409 
4 185 128 351 129 
4 360 331 361 400 
4 231 218 27 178 
4 375 127 180 22 
4 148 155 9 411 
4 291 280 173 181 
4 280 291 173 172 
4 28 27 94 178 
4 342 243 169 242 
4 280 172 173 171 
4 172 278 171 280 
4 209 208 207 401 
4 290 77 399 422 
4 395 397 422 426 
4 139 140 420 430 
4 212 211 213 417 
4 177 28 339 94 
4 405 98 109 93 
4 243 383 342 173 
4 15 146 393 417 
4 188 286 53 416 
4 22 291 383 173 
4 376 124 354 125 
4 253 389 417 254 
4 72 75 39 404 
4 200 201 66 415 
4 264 159 412 414 
4 39 162 163 399 
4 252 140 415 430 
4 379 380 253 389 
4 127 375 180 128 
4 47 348 390 394 
4 192 409 435 415 
4 361 103 360 400 
4 137 348 390 410 
4 409 192 435 195 
4 240 24 25 397 
4 250 251 387 393 
4 5 87 363 6 
4 124 376 354 20 
4 133 320 394 315 
4 173 342 243 169 
4 139 49 161 420 
4 276 385 6 391 
4 317 318 394 316 
4 243 383 173 22 
4 64 235 234 424 
4 297 259 298 403 
4 284 1 281 397 
4 85 88 34 427 
4 347 377 135 410 
4 332 333 330 389 
4 91 89 88 411 
4 274 170 168 431 
4 251 252 138 393 
4 278 171 280 392 
4 365 295 391 400 
4 284 240 397 398 
4 411 2 429 432 
4 285 282 287 398 
4 37 208 36 395 
4 141 139 142 415 
4 175 378 231 174 
4 17 251 138 393 
4 267 349 265 403 
4 179 3 279 392 
4 389 15 393 417 
4 169 170 242 402 
4 7 168 171 392 
4 186 119 398 408 
4 74 412 414 416 
4 161 49 399 420 
4 301 259 297 403 
4 186 285 188 408 
4 189 187 191 408 
4 301 152 259 403 
4 98 405 109 406 
4 240 238 241 398 
4 213 211 253 417 
4 79 209 428 433 
4 3 179 182 392 
4 184 353 81 403 
4 287 398 404 421 
4 125 120 394 408 
4 116 115 118 406 
4 111 97 98 429 
4 353 184 166 403 
4 395 399 420 422 
4 117 406 409 434 
4 295 365 296 400 
4 262 390 412 423 
4 260 11 401 404 
4 141 17 138 393 
4 151 153 150 401 
4 164 84 80 403 
4 298 257 299 403 
4 364 101 389 391 
4 396 427 430 432 
4 319 22 243 402 
4 170 124 394 431 
4 79 150 401 433 
4 395 397 399 422 
4 275 364 389 391 
4 426 386 432 434 
4 315 133 350 394 
4 266 301 410 300 
4 25 237 426 436 
4 136 350 131 394 
4 163 75 39 399 
4 395 11 399 404 
4 282 281 283 397 
4 143 146 396 427 
4 41 69 17 393 
4 130 376 245 394 
4 378 218 231 174 
4 149 396 427 430 
4 72 158 157 404 
4 171 46 278 172 
4 292 8 7 97 
4 37 13 50 395 
4 73 286 287 416 
4 76 161 399 420 
4 177 28 94 178 
4 201 77 68 420 
4 296 295 400 413 
4 51 387 389 393 
4 238 240 237 397 
4 361 331 221 389 
4 100 211 335 371 
4 142 201 420 198 
4 162 58 198 420 
4 117 108 406 434 
4 166 167 353 403 
4 252 140 138 415 
4 252 251 250 393 
4 394 137 414 416 
4 390 394 414 416 
4 12 34 50 145 
4 390 152 403 428 
4 379 332 99 389 
4 27 339 94 367 
4 273 168 7 392 
4 331 365 221 389 
4 392 401 423 433 
4 406 115 409 435 
4 5 87 6 216 
4 350 317 315 394 
4 19 206 308 74 
4 115 118 406 409 
4 371 213 253 389 
4 344 353 81 352 
4 50 89 395 154 
4 217 214 215 388 
4 203 158 159 412 
4 8 7 97 419 
4 140 252 148 430 
4 169 170 418 431 
4 201 139 420 430 
4 139 201 415 430 
4 80 81 403 428 
4 378 340 175 413 
4 66 200 393 407 
4 145 50 144 411 
4 388 396 405 417 
4 293 341 413 424 
4 422 386 426 436 
4 386 396 405 406 
4 111 95 406 107 
4 292 8 97 110 
4 97 8 111 110 
4 206 74 412 414 
4 380 305 253 211 
4 396 386 415 435 
4 82 258 36 401 
4 149 148 396 430 
4 252 147 148 430 
4 363 101 6 87 
4 232 106 231 388 
4 280 168 179 392 
4 432 107 429 434 
4 46 97 7 278 
4 116 406 425 435 
4 93 366 98 109 
4 98 111 366 110 
4 111 98 366 109 
4 318 242 394 402 
4 214 217 33 405 
4 161 58 76 399 
4 54 397 398 419 
4 96 95 429 432 
4 356 358 233 424 
4 390 418 431 433 
4 241 191 121 408 
4 348 137 390 394 
4 15 56 333 389 
4 27 218 94 178 
4 338 178 231 28 
4 108 107 406 434 
4 53 136 131 416 
4 407 42 425 435 
4 230 338 175 413 
4 261 264 412 414 
4 248 306 303 410 
4 254 219 220 333 
4 426 272 434 429 
4 194 420 422 436 
4 106 109 27 388 
4 87 389 391 417 
4 62 236 234 435 
4 75 163 160 399 
4 111 98 109 406 
4 148 147 396 430 
4 245 354 125 376 
4 317 348 316 394 
4 386 396 406 435 
4 124 170 274 431 
4 404 263 412 423 
4 423 150 428 433 
4 134 248 307 410 
4 74 72 206 412 
4 105 358 424 227 
4 95 32 405 432 
4 340 293 341 413 
4 152 410 390 403 
4 140 139 415 430 
4 138 141 66 415 
4 140 49 139 420 
4 386 409 415 435 
4 149 154 155 411 
4 388 106 405 406 
4 390 349 403 410 
4 216 87 391 417 
4 142 162 198 420 
4 388 407 425 435 
4 192 193 195 409 
4 1 0 239 397 
4 407 396 415 435 
4 348 349 390 410 
4 131 133 130 394 
4 88 91 411 427 
4 264 263 261 412 
4 286 285 287 416 
4 74 73 72 412 
4 11 10 9 399 
4 264 306 248 410 
4 426 411 429 432 
4 227 104 358 424 
4 405 86 417 427 
4 63 114 409 436 
4 61 63 62 409 
4 112 115 425 435 
4 125 124 123 408 
4 248 308 247 414 
4 106 405 93 92 
4 304 298 257 299 
4 390 394 408 431 
4 318 317 394 315 
4 377 347 136 414 
4 377 136 53 414 
4 64 235 424 425 
4 358 359 233 424 
4 26 413 341 424 
4 359 234 233 424 
4 228 104 227 424 
4 356 233 357 424 
4 233 235 357 424 
4 294 356 293 424 
4 138 140 139 415 
4 282 284 397 398 
4 390 423 428 433 
4 170 20 320 124 
4 333 220 254 379 
4 283 194 290 436 
4 364 99 221 389 
4 1 239 237 397 
4 141 138 66 393 
4 215 214 216 388 
4 379 253 254 389 
4 69 71 387 407 
4 223 360 387 400 
4 284 238 398 0 
4 118 117 409 434 
4 389 388 391 417 
4 88 37 34 411 
4 147 252 393 396 
4 182 180 185 418 
4 251 69 329 387 
4 82 36 79 401 
4 382 51 29 250 
4 228 65 104 424 
4 409 118 434 436 
4 263 157 404 412 
4 294 296 400 413 
4 95 111 406 98 
4 35 34 145 212 
4 43 223 387 400 
4 35 210 212 255 
4 326 104 369 359 
4 184 402 403 428 
4 34 12 35 145 
4 23 25 24 397 
4 158 203 205 412 
4 406 107 432 434 
4 81 184 403 428 
4 412 390 421 423 
4 212 210 211 255 
4 130 131 394 416 
4 179 182 392 418 
4 211 210 253 255 
4 100 101 213 371 
4 69 17 329 41 
4 330 56 387 389 
4 319 127 22 402 
4 37 13 12 50 
4 56 219 14 15 
4 33 90 91 432 
4 101 87 213 389 
4 272 23 54 419 
4 273 270 271 419 
4 23 25 426 434 
4 173 169 402 418 
4 145 35 212 255 
4 170 402 418 431 
4 361 330 103 387 
4 168 179 392 418 
4 65 370 234 62 
4 391 388 400 425 
4 363 100 101 213 
4 363 101 87 213 
4 229 230 55 413 
4 211 335 371 380 
4 306 264 261 410 
4 48 349 267 403 
4 65 370 369 234 
4 45 207 395 401 
4 8 270 419 429 
4 184 209 183 428 
4 77 201 76 420 
4 8 97 111 429 
4 84 299 257 403 
4 268 152 301 403 
4 389 388 393 400 
4 235 234 236 435 
4 148 9 420 430 
4 429 426 432 434 
4 31 305 380 30 
4 17 59 329 41 
4 394 390 408 416 
4 400 42 424 425 
4 189 119 186 408 
4 148 149 411 430 
4 29 382 250 381 
4 406 386 409 434 
4 305 31 380 253 
4 379 380 31 253 
4 320 315 242 394 
4 164 167 165 403 
4 282 284 281 397 
4 253 220 31 379 
4 2 395 411 429 
4 394 124 408 431 
4 183 209 401 433 
4 208 37 89 395 
4 153 50 13 395 
4 118 117 406 409 
4 229 116 232 425 
4 390 410 412 414 
4 314 321 121 337 
4 91 214 33 427 
4 398 392 421 431 
4 381 222 373 387 
4 85 34 212 427 
4 393 147 396 417 
4 42 64 424 425 
4 254 219 333 15 
4 356 357 293 424 
4 286 74 414 416 
4 290 68 77 420 
4 7 273 279 419 
4 376 320 124 394 
4 205 206 72 412 
4 338 230 229 413 
4 378 218 391 413 
4 348 317 137 394 
4 95 93 98 405 
4 379 99 380 389 
4 24 54 397 398 
4 285 287 416 421 
4 85 212 213 417 
4 157 72 404 412 
4 402 390 403 428 
4 194 192 67 415 
4 386 406 432 434 
4 84 80 403 428 
4 119 122 398 408 
4 147 252 250 393 
4 286 73 74 416 
4 68 194 415 420 
4 192 194 193 409 
4 72 73 404 412 
4 64 234 65 424 
4 36 208 79 401 
4 279 273 392 419 
4 72 158 412 157 
4 97 8 419 429 
4 372 56 382 387 
4 62 64 61 435 
4 393 66 415 138 
4 200 197 142 141 
4 228 227 226 424 
4 230 175 340 413 
4 392 398 421 423 
4 245 125 120 394 
4 254 15 389 417 
4 140 148 420 430 
4 411 395 426 429 
4 372 373 362 387 
4 41 16 52 17 
4 401 260 404 423 
4 82 150 428 258 
4 205 40 163 39 
4 150 79 428 433 
4 225 223 362 387 
4 15 51 389 393 
4 243 173 169 402 
4 273 271 392 419 
4 376 124 125 394 
4 127 126 129 402 
4 382 51 250 387 
4 365 275 364 389 
4 130 120 187 394 
4 151 260 401 423 
4 27 93 94 388 
4 250 29 381 249 
4 325 224 64 228 
4 96 97 419 429 
4 218 217 215 388 
4 60 327 42 225 
4 88 34 144 411 
4 160 158 163 404 
4 360 103 223 387 
4 348 48 47 390 
4 392 421 431 433 
4 166 184 402 403 
4 69 67 71 407 
4 0 189 238 398 
4 307 135 134 410 
4 71 43 102 387 
4 56 219 15 333 
4 118 237 25 436 
4 124 123 408 431 
4 42 64 224 424 
4 43 327 328 102 
4 80 81 167 403 
4 95 406 432 405 
4 59 17 18 16 
4 261 260 262 412 
4 390 421 423 433 
4 86 88 85 427 
4 239 237 113 436 
4 294 105 356 424 
4 64 60 42 224 
4 187 120 408 416 
4 52 17 200 41 
4 41 69 393 407 
4 42 43 223 225 
4 382 250 381 387 
4 9 148 411 430 
4 338 229 231 413 
4 218 231 27 388 
4 203 336 247 309 
4 54 23 397 426 
4 235 64 234 435 
4 192 407 415 435 
4 76 78 77 399 
4 167 368 80 164 
4 329 222 381 387 
4 69 59 41 329 
4 70 329 69 222 
4 0 284 186 398 
4 103 362 223 387 
4 329 249 18 251 
4 197 200 142 198 
4 341 357 26 424 
4 232 106 388 406 
4 69 59 329 70 
4 329 249 251 381 
4 161 163 162 399 
4 139 141 138 415 
4 403 265 268 410 
4 0 238 239 397 
4 322 63 114 323 
4 371 253 211 380 
4 69 41 66 407 
4 411 386 430 432 
4 274 273 271 392 
4 373 382 387 372 
4 181 173 402 418 
4 231 175 338 413 
4 241 121 119 408 
4 323 236 62 114 
4 213 371 253 211 
4 63 1 114 436 
4 396 386 405 432 
4 106 107 109 406 
4 58 161 420 162 
4 25 237 397 426 
4 71 43 328 102 
4 109 405 93 106 
4 39 38 40 162 
4 162 40 39 163 
4 197 142 199 198 
4 411 386 420 430 
4 58 199 38 162 
4 201 142 420 139 
4 408 285 416 421 
4 427 411 430 432 
4 4 96 429 432 
4 309 204 159 203 
4 153 151 156 401 
4 396 388 406 435 
4 316 319 318 402 
4 206 308 74 414 
4 388 389 391 400 
4 78 289 77 399 
4 243 318 319 402 
4 404 412 421 423 
4 144 88 411 427 
4 316 318 394 402 
4 11 9 395 399 
4 285 188 408 416 
4 281 1 237 397 
4 290 194 420 422 
4 194 386 409 415 
4 115 112 409 435 
4 136 53 414 416 
4 398 401 404 423 
4 231 388 391 413 
4 405 386 406 432 
4 333 254 15 389 
4 9 411 420 430 
4 320 170 124 394 
4 43 223 225 387 
4 226 227 374 424 
4 113 237 118 436 
4 160 49 10 399 
4 159 158 157 412 
4 294 277 295 413 
4 47 166 402 403 
4 215 176 174 334 
4 198 76 201 420 
4 264 261 410 414 
4 397 289 398 404 
4 388 389 393 417 
4 188 187 408 416 
4 114 112 236 409 
4 109 107 111 406 
4 58 199 162 198 
4 265 403 268 267 
4 236 62 409 435 
4 188 131 53 132 
4 70 71 222 69 
4 361 331 389 400 
4 374 105 400 424 
4 61 195 409 435 
4 223 42 225 224 
4 42 60 225 224 
4 64 62 65 435 
4 226 224 228 424 
4 193 281 196 436 
4 25 117 118 434 
4 290 194 422 436 
4 2 4 429 432 
4 223 42 224 226 
4 207 208 89 395 
4 115 112 113 409 
4 183 207 45 401 
4 300 262 152 410 
4 395 45 401 419 
4 207 183 209 401 
4 66 201 68 415 
4 211 212 255 417 
4 390 408 421 431 
4 104 65 234 424 
4 400 388 407 425 
4 258 259 150 428 
4 296 105 400 374 
4 418 392 431 433 
4 254 143 15 417 
4 42 224 226 424 
4 233 234 235 424 
4 142 161 162 420 
4 64 60 224 325 
4 281 283 422 436 
4 218 231 391 413 
4 260 151 262 423 
4 272 426 434 23 
4 135 266 410 307 
4 251 18 329 17 
4 212 145 255 427 
4 413 400 424 425 
4 120 119 121 408 
4 289 282 397 398 
4 43 195 42 407 
4 22 180 181 402 
4 74 73 412 416 
4 358 105 424 356 
4 291 22 181 173 
4 322 63 1 114 
4 0 322 1 239 
4 411 149 427 430 
4 120 187 394 416 
4 288 132 188 53 
4 398 401 419 404 
4 203 206 412 414 
4 362 102 225 387 
4 123 122 125 408 
4 218 378 231 413 
4 163 205 39 404 
4 114 113 409 436 
4 34 50 145 411 
4 173 280 171 418 
4 208 153 395 401 
4 221 99 332 389 
4 389 365 391 400 
4 222 102 373 387 
4 99 371 380 389 
4 24 119 122 398 
4 118 115 113 409 
4 62 63 323 114 
4 324 228 65 104 
4 2 4 419 429 
4 420 386 422 436 
4 228 324 65 325 
4 34 37 50 411 
4 1 281 237 436 
4 64 235 425 435 
4 250 251 381 387 
4 62 61 409 435 
4 113 112 114 409 
4 234 64 65 435 
4 295 276 391 413 
4 194 386 420 436 
4 283 289 282 397 
4 323 236 370 62 
4 248 134 308 414 
4 44 0 238 239 
4 44 322 0 239 
4 22 181 173 402 
4 232 116 388 425 
4 45 183 401 433 
4 54 24 122 398 
4 214 86 405 427 
4 118 426 434 436 
4 386 411 426 432 
4 149 147 146 396 
4 371 364 101 389 
4 303 306 261 410 
4 142 200 141 415 
4 262 151 152 423 
4 349 48 390 403 
4 362 103 372 387 
4 119 189 398 241 
4 183 182 418 433 
4 390 402 418 428 
4 82 257 258 428 
4 32 217 92 405 
4 222 71 102 387 
4 149 144 411 427 
4 102 43 225 387 
4 231 106 27 388 
4 295 296 294 413 
4 146 143 396 417 
4 281 283 397 422 
4 413 26 341 55 
4 56 51 387 389 
4 156 260 11 401 
4 274 123 124 431 
4 395 397 404 399 
4 67 192 407 415 
4 163 75 404 39 
4 67 69 66 407 
4 248 264 410 414 
4 180 181 402 418 
4 300 266 307 410 
4 159 203 412 414 
4 74 53 286 414 
4 80 79 81 428 
4 265 347 135 410 
4 223 42 226 400 
4 134 248 410 414 
4 289 283 290 397 
4 125 245 376 394 
4 9 140 148 420 
4 340 378 277 413 
4 69 251 329 17 
4 55 229 413 425 
4 251 69 387 393 
4 308 206 247 414 
4 301 300 152 410 
4 377 134 410 414 
4 109 405 106 406 
4 369 324 65 104 
4 158 72 412 205 
4 168 169 418 431 
4 217 218 92 388 
4 156 154 153 395 
4 349 48 348 390 
4 89 91 90 411 
4 390 47 394 402 
4 397 281 422 426 
4 231 229 388 413 
4 101 213 371 389 
4 364 221 365 389 
4 284 285 186 398 
4 155 154 395 411 
4 411 395 422 426 
4 42 226 400 424 
4 234 65 62 435 
4 303 262 300 410 
4 41 200 66 407 
4 388 116 406 425 
4 392 45 401 433 
4 257 259 258 428 
4 114 1 239 436 
4 369 324 104 326 
4 424 294 400 413 
4 258 82 150 401 
4 258 150 13 401 
4 9 49 140 420 
4 398 186 408 421 
4 209 183 428 433 
4 183 45 392 433 
4 232 108 106 406 
4 112 236 409 435 
4 141 200 17 393 
4 59 17 16 41 
4 62 236 370 234 
4 23 25 397 426 
4 272 23 419 426 
4 54 397 419 426 
4 217 32 33 405 
4 23 54 419 426 
4 42 400 407 425 
4 235 26 424 425 
4 281 193 283 436 
4 388 391 413 425 
4 137 136 414 416 
